<svg xmlns="http://www.w3.org/2000/svg" xmlns:xlink="http://www.w3.org/1999/xlink" id="Layer_1" x="0" y="0" baseProfile="tiny" version="1.2" viewBox="0 0 400 400" xml:space="preserve"><switch><g><path id="XMLID_91_" fill="#eee" d="M209.1,5.8c8.4,11.7,16.1,22.6,24.5,33.1c8.4,10.5,16.8,20.9,25.6,31 c5.8,6.7,12,13.1,18.1,19.5c9.7,10,19.4,20.1,29.4,29.7c11.5,11.1,23.6,21.4,35.9,31.6c12.7,10.5,26.1,20.1,39.2,30 c2.8,2.1,5.8,4,8.9,5.8c3,1.7,5.1,4,6.8,7c4.3,7.9,2.9,14-4.9,18.8c-20.5,12.7-39,28.1-57.5,43.5c-11.3,9.4-22.2,19.2-32.8,29.4 c-10,9.6-19.8,19.5-29.3,29.8c-14.8,16-29.1,32.4-42.5,49.6c-6.4,8.2-12.8,16.3-18.5,25c-5.2,8-9.7,9.5-18,7.1 c-3-0.8-4.7-2.6-6.2-5.1c-11.7-19.4-26.3-36.6-40.5-54.1c-11-13.5-23-26.3-35.4-38.5c-20.5-20-41.3-39.5-63.9-57.1 c-13.6-10.6-27.3-20.9-41.3-31c-8.6-6.2-8.8-15.4-0.3-22.2c5.1-4.1,10.6-7.8,16.1-11.4c14.3-9.6,27.7-20.6,40.8-31.7 c15.2-12.9,29.8-26.6,43.9-40.9c9.7-9.9,19.5-19.9,28.8-30.2c15.4-17.1,30.2-34.8,43.6-53.6c3.4-4.7,7.6-8.7,10.6-13.8 c2.4-4,9.2-5.4,13.8-3.7C205.7,3.8,207.5,4.9,209.1,5.8z M51.9,200.7c-0.2,4.2,1,8.1,3.3,11.5c7.8,11.9,16.5,23.1,25.7,33.8 c12.6,14.6,25.7,28.7,40,41.7c9.2,8.3,18.5,16.5,27.5,25c11.8,11.1,24.6,21,38.2,29.8c10,6.6,19.4,6.1,29-0.3 c12.2-8.1,23.7-17.3,34.8-26.9c10.5-9.1,20.7-18.6,30.6-28.4c21.6-21.5,42.4-43.6,59.8-68.6c8.3-11.9,9.5-21.8,2.2-31.5 c-4.3-5.7-8.1-11.6-12.5-17.2c-14.7-18.7-30.4-36.6-46.9-53.8c-4.9-5.1-10-10.1-15.2-14.9c-6.7-6.1-13.7-12-20.6-17.9 c-11.1-9.6-22-19.6-35.1-26.5c-7.9-4.2-16.6-5.6-24.6-0.2c-20.4,13.8-39,29.8-57,46.5c-12.6,11.7-24.9,23.8-36.6,36.4 C81.6,153.5,69,168,58,183.9C54.5,188.9,51.9,194.4,51.9,200.7z"/><path id="XMLID_81_" fill="none" d="M51.9,200.7c0-6.3,2.6-11.8,6.1-16.9c11-15.8,23.7-30.4,36.7-44.5 c11.7-12.6,24-24.7,36.6-36.4c18-16.7,36.7-32.7,57-46.5c8-5.4,16.6-4,24.6,0.2c13.1,6.9,24,16.9,35.1,26.5 c6.9,6,13.9,11.8,20.6,17.9c5.2,4.8,10.3,9.7,15.2,14.9c16.5,17.2,32.2,35,46.9,53.8c4.4,5.6,8.2,11.5,12.5,17.2 c7.3,9.7,6.1,19.6-2.2,31.5c-17.5,25.1-38.3,47.1-59.8,68.6c-9.9,9.8-20.1,19.3-30.6,28.4c-11.1,9.6-22.5,18.8-34.8,26.9 c-9.6,6.4-19,6.8-29,0.3c-13.6-8.9-26.3-18.8-38.2-29.8c-9-8.5-18.3-16.7-27.5-25c-14.3-13-27.4-27.1-40-41.7 c-9.3-10.7-18-21.9-25.7-33.8C52.9,208.8,51.7,205,51.9,200.7z M338.4,202.6c-0.4-8.1-3.4-13.8-7.5-19.1 c-10.1-13-20.3-25.9-31.2-38.2c-13.1-14.8-27.3-28.6-41.8-41.9c-14-12.8-28.6-25-44.1-36c-7.8-5.6-17.5-5.8-24.8-0.3 c-17.8,13.4-35.5,26.9-51.7,42.3c-12.5,11.8-24.8,23.9-36.5,36.5c-5,5.4-9.6,11.1-14.6,16.5c-7.2,7.8-13.7,16.3-19.9,24.9 c-5.6,7.9-6,16.3-0.7,24.9c4.8,7.8,11.1,14.5,16.7,21.5c8.8,11.1,18.6,21.4,28.4,31.6c23.4,24.3,48.2,47.1,75.7,66.8 c11.4,8.2,16,7.6,27.7,0.8c5.3-3.1,9.4-7.8,14.5-11c8.2-5.2,15.1-11.9,22.4-18.1c11.2-9.5,21.7-19.9,31.9-30.4 c9.9-10.2,20.2-20,29.1-31.2c5.8-7.3,11.9-14.4,17.5-21.9C333.7,214.7,338.2,209.1,338.4,202.6z"/><path id="XMLID_76_" fill="#eee" d="M338.4,202.6c-0.2,6.4-4.7,12.1-8.9,17.7c-5.6,7.5-11.7,14.6-17.5,21.9 c-8.9,11.2-19.2,20.9-29.1,31.2c-10.2,10.6-20.7,20.9-31.9,30.4c-7.3,6.2-14.2,12.9-22.4,18.1c-5.1,3.2-9.2,7.9-14.5,11 c-11.7,6.8-16.3,7.4-27.7-0.8c-27.5-19.7-52.3-42.5-75.7-66.8c-9.8-10.2-19.6-20.6-28.4-31.6c-5.6-7.1-11.9-13.7-16.7-21.5 c-5.3-8.6-5-17.1,0.7-24.9c6.2-8.6,12.7-17.1,19.9-24.9c5-5.4,9.6-11.1,14.6-16.5c11.7-12.6,23.9-24.7,36.5-36.5 c16.2-15.3,33.9-28.9,51.7-42.3c7.3-5.5,17-5.2,24.8,0.3c15.5,11.1,30.2,23.2,44.1,36c14.5,13.3,28.7,27.1,41.8,41.9 c10.9,12.3,21.1,25.2,31.2,38.2C335,188.8,338,194.6,338.4,202.6z M232,172.1c-0.6-0.8,0.8-0.5-0.2-0.7c-0.2,0-0.5,0-0.5,0 c-0.1,0.6,0.2,0.8,0.8,0.5c0.8,5.4,2.4,10.6,5,15.3c11.5-2.9,18.4-1.4,24.1,5.1c5.9,6.8,5.3,13-2.3,17.8c-5.1,3.3-10.6,6-16.5,7.6 c-25,6.5-50.2,6.5-75.5,1.4c-7.5-1.5-14.5-4.5-20.7-9c-5.1-3.7-6.1-8.9-2.3-13.1c4.2-4.7,8.7-9.2,15.2-11c4.7-1.3,9.5-2.7,15-4.3 c-6.4-5.2-12.9-9-19.2-12.3c-13.4,2-24.4,8.1-34.5,15.9c-10.2,7.8-9.7,20.4,0.9,27.4c3.4,2.2,6.3,5,10.3,6.4 c20.2,7.2,40.8,12,62.4,12.3c20.7,0.3,40.9-2.9,60.7-9.1c6.3-2,12.3-4.6,17.1-9.4c7.4-7.4,7.9-13.1,1.6-21.4 c-1.6-2.1-3.6-3.5-5.8-4.7c-2.1-1.2-4.6-2-6-3.9c1-2.3,3.4-1,4.8-3.3C254.6,176.8,243.6,173.5,232,172.1z M189.3,217.9 c7.1,1.5,13.5,1.6,20.1-0.1c-1-20.3-1.9-39.8-2.9-59.7c5.3-1.6,10.8-0.2,16.3-1.4c-7.8-21.2-15.5-42.1-23.3-63.5 c-7.5,21.6-14.8,42.5-22.1,63.4c5.1,1.9,9.9-0.5,14.3,2.2C190.9,178.2,190.1,197.7,189.3,217.9z M212.7,296.8 c-0.9-21-1.7-41.2-2.5-61.7c-7.5,0-14.2,0-20.9,0c-1.9,20.6-1.1,40.8-3.1,61.2C195.3,297.6,203.3,297.4,212.7,296.8z"/><path id="XMLID_75_" fill="none" d="M232,172.1c11.5,1.4,22.6,4.7,34.2,7.5c-1.4,2.3-3.8,1-4.8,3.3c1.4,2,3.9,2.8,6,3.9 c2.2,1.3,4.3,2.6,5.8,4.7c6.3,8.3,5.9,14-1.6,21.4c-4.8,4.8-10.8,7.5-17.1,9.4c-19.7,6.2-39.9,9.4-60.7,9.1 c-21.5-0.4-42.2-5.2-62.4-12.3c-3.9-1.4-6.9-4.2-10.3-6.4c-10.6-7-11.1-19.5-0.9-27.4c10.1-7.8,21.1-13.9,34.5-15.9 c6.4,3.3,12.8,7.1,19.2,12.3c-5.5,1.6-10.2,3-15,4.3c-6.5,1.7-11,6.3-15.2,11c-3.8,4.2-2.7,9.4,2.3,13.1c6.2,4.5,13.2,7.5,20.7,9 c25.3,5.1,50.4,5.1,75.5-1.4c5.9-1.5,11.4-4.3,16.5-7.6c7.6-4.9,8.2-11.1,2.3-17.8c-5.7-6.5-12.5-8-24.1-5.1 c-2.6-4.7-4.2-9.9-5-15.3L232,172.1z"/><path id="XMLID_74_" fill="none" d="M189.3,217.9c0.8-20.2,1.7-39.7,2.5-59.3c-4.4-2.6-9.2-0.3-14.3-2.2 c7.3-20.9,14.5-41.7,22.1-63.4c7.9,21.4,15.5,42.3,23.3,63.5c-5.5,1.3-11-0.2-16.3,1.4c1,19.9,1.9,39.4,2.9,59.7 C202.8,219.5,196.4,219.3,189.3,217.9z"/><path id="XMLID_73_" fill="none" d="M212.7,296.8c-9.4,0.6-17.4,0.8-26.5-0.5c2.1-20.4,1.2-40.6,3.1-61.2c6.7,0,13.4,0,20.9,0 C211,255.6,211.8,275.8,212.7,296.8z"/><path id="XMLID_72_" fill="#eee" d="M232.2,172c-0.6,0.3-0.9,0.2-0.8-0.5c0,0,0.3-0.1,0.5,0c1,0.2-0.4-0.2,0.2,0.7L232.2,172z"/></g></switch></svg>